<?xml version="1.0" encoding="utf-8"?>
<!-- Generator: Adobe Illustrator 24.3.0, SVG Export Plug-In . SVG Version: 6.00 Build 0)  -->
<svg version="1.1" baseProfile="tiny" id="Layer_1" xmlns="http://www.w3.org/2000/svg" xmlns:xlink="http://www.w3.org/1999/xlink"
	 x="0px" y="0px" viewBox="0 0 351 156" overflow="visible" xml:space="preserve">
<g>
	<path d="M207.93,10.42l-0.84,2.54h-1.08l2.75-8.08h1.26l2.76,8.08h-1.12l-0.86-2.54H207.93z M210.58,9.6l-0.79-2.33
		c-0.18-0.53-0.3-1.01-0.42-1.48h-0.02c-0.12,0.48-0.25,0.97-0.41,1.46l-0.79,2.34H210.58z"/>
	<path d="M213.89,4.45h1.06v8.52h-1.06V4.45z"/>
	<path d="M217.13,7.16l1.14,3.26c0.19,0.53,0.35,1.01,0.47,1.49h0.04c0.13-0.48,0.3-0.96,0.49-1.49l1.13-3.26h1.1l-2.28,5.8h-1.01
		L216,7.16H217.13z"/>
	<path d="M227.63,10.01c0,2.15-1.49,3.08-2.89,3.08c-1.57,0-2.78-1.15-2.78-2.99c0-1.94,1.27-3.08,2.88-3.08
		C226.5,7.03,227.63,8.24,227.63,10.01z M223.02,10.07c0,1.27,0.73,2.23,1.76,2.23c1.01,0,1.76-0.95,1.76-2.25
		c0-0.98-0.49-2.23-1.74-2.23C223.56,7.82,223.02,8.97,223.02,10.07z"/>
	<path d="M228.96,8.97c0-0.68-0.01-1.27-0.05-1.81h0.92l0.04,1.14h0.05c0.26-0.78,0.9-1.27,1.61-1.27c0.12,0,0.2,0.01,0.3,0.04v1
		c-0.11-0.02-0.22-0.04-0.36-0.04c-0.74,0-1.27,0.56-1.42,1.36c-0.02,0.14-0.05,0.31-0.05,0.49v3.09h-1.04V8.97z"/>
</g>
<g>
	<path d="M167.63,43.78l-0.84,2.54h-1.08l2.75-8.08h1.26l2.76,8.08h-1.12l-0.86-2.54H167.63z M170.28,42.96l-0.79-2.33
		c-0.18-0.53-0.3-1.01-0.42-1.48h-0.02c-0.12,0.48-0.25,0.97-0.41,1.46l-0.79,2.34H170.28z"/>
	<path d="M173.6,37.8h1.06v8.52h-1.06V37.8z"/>
	<path d="M176.84,40.51l1.14,3.26c0.19,0.53,0.35,1.01,0.47,1.49h0.04c0.13-0.48,0.3-0.96,0.49-1.49l1.13-3.26h1.1l-2.28,5.8h-1.01
		l-2.21-5.8H176.84z"/>
	<path d="M181.05,47.79c0.26-0.71,0.59-1.99,0.72-2.87l1.18-0.12c-0.28,1.02-0.8,2.35-1.14,2.91L181.05,47.79z"/>
	<path d="M188.1,43.78l-0.84,2.54h-1.08l2.75-8.08h1.26l2.76,8.08h-1.12l-0.86-2.54H188.1z M190.75,42.96l-0.79-2.33
		c-0.18-0.53-0.3-1.01-0.42-1.48h-0.02c-0.12,0.48-0.25,0.97-0.41,1.46l-0.79,2.34H190.75z"/>
	<path d="M194.07,37.8h1.06v8.52h-1.06V37.8z"/>
	<path d="M197.01,46.32v-5h-0.82v-0.8h0.82v-0.28c0-0.82,0.18-1.56,0.67-2.03c0.4-0.38,0.92-0.54,1.42-0.54
		c0.37,0,0.7,0.08,0.9,0.17l-0.14,0.82c-0.16-0.07-0.37-0.13-0.67-0.13c-0.9,0-1.13,0.79-1.13,1.68v0.31h1.4v0.8h-1.4v5H197.01z"/>
	<path d="M199.33,47.79c0.26-0.71,0.59-1.99,0.72-2.87l1.18-0.12c-0.28,1.02-0.8,2.35-1.14,2.91L199.33,47.79z"/>
	<path d="M206.38,43.78l-0.84,2.54h-1.08l2.75-8.08h1.26l2.76,8.08h-1.12l-0.86-2.54H206.38z M209.03,42.96l-0.79-2.33
		c-0.18-0.53-0.3-1.01-0.42-1.48h-0.02c-0.12,0.48-0.25,0.97-0.41,1.46l-0.79,2.34H209.03z"/>
	<path d="M212.35,37.8h1.06v8.52h-1.06V37.8z"/>
	<path d="M215.59,40.51l1.14,3.26c0.19,0.53,0.35,1.01,0.47,1.49h0.04c0.13-0.48,0.3-0.96,0.49-1.49l1.13-3.26h1.1l-2.28,5.8h-1.01
		l-2.21-5.8H215.59z"/>
	<path d="M224.12,46.32l-0.08-0.73H224c-0.32,0.46-0.95,0.86-1.78,0.86c-1.17,0-1.77-0.83-1.77-1.67c0-1.4,1.25-2.17,3.49-2.16V42.5
		c0-0.48-0.13-1.34-1.32-1.34c-0.54,0-1.1,0.17-1.51,0.43l-0.24-0.7c0.48-0.31,1.18-0.52,1.91-0.52c1.78,0,2.21,1.21,2.21,2.37v2.17
		c0,0.5,0.02,1,0.1,1.39H224.12z M223.96,43.36c-1.15-0.02-2.46,0.18-2.46,1.31c0,0.68,0.46,1.01,1,1.01c0.75,0,1.24-0.48,1.4-0.97
		c0.04-0.11,0.06-0.23,0.06-0.34V43.36z"/>
	<path d="M226.69,42.33c0-0.68-0.01-1.27-0.05-1.81h0.92l0.04,1.14h0.05c0.26-0.78,0.9-1.27,1.61-1.27c0.12,0,0.2,0.01,0.3,0.04v1
		c-0.11-0.02-0.22-0.04-0.36-0.04c-0.74,0-1.27,0.56-1.42,1.36c-0.02,0.14-0.05,0.31-0.05,0.49v3.09h-1.04V42.33z"/>
	<path d="M235.74,43.37c0,2.15-1.49,3.08-2.89,3.08c-1.57,0-2.78-1.15-2.78-2.99c0-1.94,1.27-3.08,2.88-3.08
		C234.62,40.38,235.74,41.59,235.74,43.37z M231.14,43.43c0,1.27,0.73,2.23,1.76,2.23c1.01,0,1.76-0.95,1.76-2.25
		c0-0.98-0.49-2.23-1.74-2.23C231.68,41.17,231.14,42.33,231.14,43.43z"/>
	<path d="M236.11,47.79c0.26-0.71,0.59-1.99,0.72-2.87l1.18-0.12c-0.28,1.02-0.8,2.35-1.14,2.91L236.11,47.79z"/>
	<path d="M247.5,46.06c-0.38,0.19-1.15,0.38-2.13,0.38c-2.28,0-3.99-1.44-3.99-4.09c0-2.53,1.72-4.25,4.22-4.25
		c1.01,0,1.64,0.22,1.92,0.36l-0.25,0.85c-0.4-0.19-0.96-0.34-1.63-0.34c-1.89,0-3.15,1.21-3.15,3.33c0,1.98,1.14,3.25,3.11,3.25
		c0.64,0,1.28-0.13,1.7-0.34L247.5,46.06z"/>
	<path d="M251.91,46.32l-0.08-0.73h-0.04c-0.32,0.46-0.95,0.86-1.77,0.86c-1.18,0-1.78-0.83-1.78-1.67c0-1.4,1.25-2.17,3.49-2.16
		V42.5c0-0.48-0.13-1.34-1.32-1.34c-0.54,0-1.1,0.17-1.51,0.43l-0.24-0.7c0.48-0.31,1.17-0.52,1.91-0.52c1.77,0,2.21,1.21,2.21,2.37
		v2.17c0,0.5,0.02,1,0.1,1.39H251.91z M251.75,43.36c-1.15-0.02-2.46,0.18-2.46,1.31c0,0.68,0.46,1.01,1,1.01
		c0.76,0,1.24-0.48,1.4-0.97c0.04-0.11,0.06-0.23,0.06-0.34V43.36z"/>
	<path d="M254.48,37.8h1.06v8.52h-1.06V37.8z"/>
	<path d="M257.72,40.51l1.14,3.26c0.19,0.53,0.35,1.01,0.47,1.49h0.04c0.13-0.48,0.3-0.96,0.49-1.49l1.13-3.26h1.1l-2.28,5.8h-1.01
		l-2.21-5.8H257.72z"/>
	<path d="M264.26,38.88c0.01,0.36-0.25,0.65-0.67,0.65c-0.37,0-0.64-0.29-0.64-0.65c0-0.37,0.28-0.66,0.66-0.66
		C264,38.22,264.26,38.51,264.26,38.88z M263.08,46.32v-5.8h1.06v5.8H263.08z"/>
	<path d="M265.89,42.08c0-0.6-0.01-1.09-0.05-1.57h0.94l0.06,0.96h0.02c0.29-0.55,0.96-1.09,1.92-1.09c0.8,0,2.05,0.48,2.05,2.47
		v3.47h-1.06v-3.35c0-0.94-0.35-1.71-1.34-1.71c-0.7,0-1.24,0.49-1.42,1.08c-0.05,0.13-0.07,0.31-0.07,0.49v3.49h-1.06V42.08z"/>
</g>
<g>
	<path d="M90.43,72.14v3.38h3.91v-3.38h1.06v8.08h-1.06v-3.79h-3.91v3.79h-1.04v-8.08H90.43z"/>
	<path d="M100.39,80.23l-0.08-0.73h-0.04c-0.32,0.46-0.95,0.86-1.77,0.86c-1.18,0-1.77-0.83-1.77-1.67c0-1.4,1.25-2.17,3.49-2.16
		v-0.12c0-0.48-0.13-1.34-1.32-1.34c-0.54,0-1.1,0.17-1.51,0.43l-0.24-0.7c0.48-0.31,1.18-0.52,1.91-0.52
		c1.77,0,2.21,1.21,2.21,2.37v2.17c0,0.5,0.02,1,0.1,1.39H100.39z M100.24,77.26c-1.15-0.02-2.46,0.18-2.46,1.31
		c0,0.68,0.46,1.01,1,1.01c0.76,0,1.24-0.48,1.4-0.97c0.04-0.11,0.06-0.23,0.06-0.34V77.26z"/>
	<path d="M102.96,71.71h1.06v8.52h-1.06V71.71z"/>
	<path d="M105.9,80.23v-5h-0.82v-0.8h0.82v-0.28c0-0.82,0.18-1.56,0.67-2.03c0.4-0.38,0.92-0.54,1.42-0.54c0.37,0,0.7,0.08,0.9,0.17
		l-0.14,0.82c-0.16-0.07-0.37-0.13-0.67-0.13c-0.9,0-1.13,0.79-1.13,1.68v0.31h1.4v0.8h-1.4v5H105.9z"/>
	<path d="M109.3,76.23c0-0.68-0.01-1.27-0.05-1.81h0.92l0.04,1.14h0.05c0.26-0.78,0.9-1.27,1.61-1.27c0.12,0,0.2,0.01,0.3,0.04v1
		c-0.11-0.02-0.22-0.04-0.36-0.04c-0.74,0-1.27,0.56-1.42,1.36c-0.02,0.14-0.05,0.31-0.05,0.49v3.09h-1.04V76.23z"/>
	<path d="M114.45,72.79c0.01,0.36-0.25,0.65-0.67,0.65c-0.37,0-0.64-0.29-0.64-0.65c0-0.37,0.28-0.66,0.66-0.66
		C114.19,72.13,114.45,72.42,114.45,72.79z M113.27,80.23v-5.8h1.06v5.8H113.27z"/>
	<path d="M121.09,71.71v7.02c0,0.52,0.01,1.1,0.05,1.5h-0.95l-0.05-1.01h-0.02c-0.32,0.65-1.03,1.14-1.98,1.14
		c-1.4,0-2.48-1.19-2.48-2.95c-0.01-1.93,1.19-3.12,2.6-3.12c0.89,0,1.49,0.42,1.75,0.89h0.02v-3.47H121.09z M120.04,76.78
		c0-0.13-0.01-0.31-0.05-0.44c-0.16-0.67-0.73-1.22-1.52-1.22c-1.09,0-1.74,0.96-1.74,2.24c0,1.18,0.58,2.15,1.72,2.15
		c0.71,0,1.35-0.47,1.55-1.26c0.04-0.14,0.05-0.29,0.05-0.46V76.78z"/>
	<path d="M122.04,81.7c0.26-0.71,0.59-1.99,0.72-2.87l1.18-0.12c-0.28,1.02-0.8,2.35-1.14,2.91L122.04,81.7z"/>
	<path d="M128.83,72.14v3.38h3.91v-3.38h1.06v8.08h-1.06v-3.79h-3.91v3.79h-1.04v-8.08H128.83z"/>
	<path d="M138.79,80.23l-0.08-0.73h-0.04c-0.32,0.46-0.95,0.86-1.77,0.86c-1.18,0-1.77-0.83-1.77-1.67c0-1.4,1.25-2.17,3.49-2.16
		v-0.12c0-0.48-0.13-1.34-1.32-1.34c-0.54,0-1.1,0.17-1.51,0.43l-0.24-0.7c0.48-0.31,1.18-0.52,1.91-0.52
		c1.77,0,2.21,1.21,2.21,2.37v2.17c0,0.5,0.02,1,0.1,1.39H138.79z M138.64,77.26c-1.15-0.02-2.46,0.18-2.46,1.31
		c0,0.68,0.46,1.01,1,1.01c0.76,0,1.24-0.48,1.4-0.97c0.04-0.11,0.06-0.23,0.06-0.34V77.26z"/>
	<path d="M141.36,71.71h1.06v8.52h-1.06V71.71z"/>
	<path d="M144.6,74.42l1.14,3.26c0.19,0.53,0.35,1.01,0.47,1.49h0.04c0.13-0.48,0.3-0.96,0.49-1.49l1.13-3.26h1.1l-2.28,5.8h-1.01
		l-2.21-5.8H144.6z"/>
	<path d="M153.13,80.23l-0.08-0.73h-0.04c-0.32,0.46-0.95,0.86-1.77,0.86c-1.18,0-1.77-0.83-1.77-1.67c0-1.4,1.25-2.17,3.49-2.16
		v-0.12c0-0.48-0.13-1.34-1.32-1.34c-0.54,0-1.1,0.17-1.51,0.43l-0.24-0.7c0.48-0.31,1.18-0.52,1.91-0.52
		c1.77,0,2.21,1.21,2.21,2.37v2.17c0,0.5,0.02,1,0.1,1.39H153.13z M152.98,77.26c-1.15-0.02-2.46,0.18-2.46,1.31
		c0,0.68,0.46,1.01,1,1.01c0.76,0,1.24-0.48,1.4-0.97c0.04-0.11,0.06-0.23,0.06-0.34V77.26z"/>
	<path d="M155.7,76.23c0-0.68-0.01-1.27-0.05-1.81h0.92l0.04,1.14h0.05c0.26-0.78,0.9-1.27,1.61-1.27c0.12,0,0.2,0.01,0.3,0.04v1
		c-0.11-0.02-0.22-0.04-0.36-0.04c-0.74,0-1.27,0.56-1.42,1.36c-0.02,0.14-0.05,0.31-0.05,0.49v3.09h-1.04V76.23z"/>
	<path d="M158.31,81.7c0.26-0.71,0.59-1.99,0.72-2.87l1.18-0.12c-0.28,1.02-0.8,2.35-1.14,2.91L158.31,81.7z"/>
	<path d="M165.1,72.14v3.38h3.91v-3.38h1.06v8.08h-1.06v-3.79h-3.91v3.79h-1.04v-8.08H165.1z"/>
	<path d="M175.06,80.23l-0.08-0.73h-0.04c-0.32,0.46-0.95,0.86-1.77,0.86c-1.18,0-1.77-0.83-1.77-1.67c0-1.4,1.25-2.17,3.49-2.16
		v-0.12c0-0.48-0.13-1.34-1.32-1.34c-0.54,0-1.1,0.17-1.51,0.43l-0.24-0.7c0.48-0.31,1.18-0.52,1.91-0.52
		c1.77,0,2.21,1.21,2.21,2.37v2.17c0,0.5,0.02,1,0.1,1.39H175.06z M174.9,77.26c-1.15-0.02-2.46,0.18-2.46,1.31
		c0,0.68,0.46,1.01,1,1.01c0.76,0,1.24-0.48,1.4-0.97c0.04-0.11,0.06-0.23,0.06-0.34V77.26z"/>
	<path d="M177.62,71.71h1.06v8.52h-1.06V71.71z"/>
	<path d="M180.86,74.42l1.14,3.26c0.19,0.53,0.35,1.01,0.47,1.49h0.04c0.13-0.48,0.3-0.96,0.49-1.49l1.13-3.26h1.1l-2.28,5.8h-1.01
		l-2.21-5.8H180.86z"/>
	<path d="M189.4,80.23l-0.08-0.73h-0.04c-0.32,0.46-0.95,0.86-1.78,0.86c-1.17,0-1.77-0.83-1.77-1.67c0-1.4,1.25-2.17,3.49-2.16
		v-0.12c0-0.48-0.13-1.34-1.32-1.34c-0.54,0-1.1,0.17-1.51,0.43l-0.24-0.7c0.48-0.31,1.17-0.52,1.91-0.52
		c1.78,0,2.21,1.21,2.21,2.37v2.17c0,0.5,0.02,1,0.1,1.39H189.4z M189.24,77.26c-1.15-0.02-2.46,0.18-2.46,1.31
		c0,0.68,0.46,1.01,1,1.01c0.76,0,1.24-0.48,1.4-0.97c0.04-0.11,0.06-0.23,0.06-0.34V77.26z"/>
	<path d="M191.97,76.23c0-0.68-0.01-1.27-0.05-1.81h0.92l0.04,1.14h0.05c0.26-0.78,0.9-1.27,1.61-1.27c0.12,0,0.2,0.01,0.3,0.04v1
		c-0.11-0.02-0.22-0.04-0.36-0.04c-0.74,0-1.27,0.56-1.42,1.36c-0.02,0.14-0.05,0.31-0.05,0.49v3.09h-1.04V76.23z"/>
	<path d="M200.78,71.71v7.02c0,0.52,0.01,1.1,0.05,1.5h-0.95l-0.05-1.01h-0.02c-0.32,0.65-1.03,1.14-1.98,1.14
		c-1.4,0-2.48-1.19-2.48-2.95c-0.01-1.93,1.19-3.12,2.6-3.12c0.89,0,1.49,0.42,1.75,0.89h0.02v-3.47H200.78z M199.73,76.78
		c0-0.13-0.01-0.31-0.05-0.44c-0.16-0.67-0.73-1.22-1.52-1.22c-1.09,0-1.74,0.96-1.74,2.24c0,1.18,0.58,2.15,1.71,2.15
		c0.71,0,1.36-0.47,1.55-1.26c0.04-0.14,0.05-0.29,0.05-0.46V76.78z"/>
</g>
<line stroke="#000000" stroke-miterlimit="10" x1="209.78" y1="49.35" x2="135.72" y2="68.57"/>
<g>
	<path d="M237.55,73.03h-2.46v-0.89h5.98v0.89h-2.47v7.2h-1.06V73.03z"/>
	<path d="M240.53,81.91c0.48-0.04,0.9-0.17,1.15-0.44c0.29-0.34,0.4-0.79,0.4-2.18v-4.86h1.05v5.27c0,1.13-0.18,1.86-0.7,2.39
		c-0.47,0.47-1.24,0.66-1.8,0.66L240.53,81.91z M243.25,72.79c0.01,0.35-0.24,0.65-0.66,0.65c-0.4,0-0.65-0.3-0.65-0.65
		c0-0.37,0.28-0.66,0.67-0.66C243,72.13,243.25,72.42,243.25,72.79z"/>
	<path d="M248.08,80.23l-0.08-0.73h-0.04c-0.32,0.46-0.95,0.86-1.78,0.86c-1.17,0-1.77-0.83-1.77-1.67c0-1.4,1.25-2.17,3.49-2.16
		v-0.12c0-0.48-0.13-1.34-1.32-1.34c-0.54,0-1.1,0.17-1.51,0.43l-0.24-0.7c0.48-0.31,1.17-0.52,1.91-0.52
		c1.78,0,2.21,1.21,2.21,2.37v2.17c0,0.5,0.02,1,0.1,1.39H248.08z M247.92,77.26c-1.15-0.02-2.46,0.18-2.46,1.31
		c0,0.68,0.46,1.01,1,1.01c0.76,0,1.24-0.48,1.4-0.97c0.04-0.11,0.06-0.23,0.06-0.34V77.26z"/>
	<path d="M250.65,71.71h1.05v8.52h-1.05V71.71z"/>
	<path d="M253.88,74.42l1.14,3.26c0.19,0.53,0.35,1.01,0.47,1.49h0.04c0.13-0.48,0.3-0.96,0.49-1.49l1.13-3.26h1.1l-2.28,5.8h-1.01
		l-2.21-5.8H253.88z"/>
	<path d="M259.72,77.52c0.02,1.43,0.94,2.01,1.99,2.01c0.76,0,1.21-0.13,1.61-0.3l0.18,0.76c-0.37,0.17-1.01,0.36-1.93,0.36
		c-1.79,0-2.85-1.18-2.85-2.93s1.03-3.13,2.72-3.13c1.89,0,2.4,1.67,2.4,2.73c0,0.22-0.02,0.38-0.04,0.49H259.72z M262.81,76.76
		c0.01-0.67-0.28-1.71-1.46-1.71c-1.07,0-1.54,0.98-1.62,1.71H262.81z"/>
	<path d="M264.31,81.7c0.26-0.71,0.59-1.99,0.72-2.87l1.18-0.12c-0.28,1.02-0.8,2.35-1.14,2.91L264.31,81.7z"/>
	<path d="M271.37,77.68l-0.84,2.54h-1.08l2.75-8.08h1.26l2.76,8.08h-1.12l-0.86-2.54H271.37z M274.02,76.87l-0.79-2.33
		c-0.18-0.53-0.3-1.01-0.42-1.48h-0.02c-0.12,0.48-0.25,0.97-0.41,1.46l-0.79,2.34H274.02z"/>
	<path d="M277.33,71.71h1.05v8.52h-1.05V71.71z"/>
	<path d="M280.57,74.42l1.14,3.26c0.19,0.53,0.35,1.01,0.47,1.49h0.04c0.13-0.48,0.3-0.96,0.49-1.49l1.13-3.26h1.1l-2.28,5.8h-1.01
		l-2.21-5.8H280.57z"/>
	<path d="M285.89,80.23c0.02-0.4,0.05-0.98,0.05-1.5v-7.02h1.04v3.65H287c0.37-0.65,1.04-1.07,1.98-1.07c1.44,0,2.46,1.2,2.45,2.96
		c0,2.08-1.31,3.11-2.6,3.11c-0.84,0-1.51-0.32-1.94-1.09h-0.04l-0.05,0.96H285.89z M286.98,77.9c0,0.13,0.02,0.26,0.05,0.38
		c0.2,0.73,0.82,1.24,1.58,1.24c1.1,0,1.76-0.9,1.76-2.23c0-1.16-0.6-2.16-1.73-2.16c-0.72,0-1.39,0.49-1.61,1.3
		c-0.02,0.12-0.06,0.26-0.06,0.43V77.9z"/>
	<path d="M293.35,77.52c0.02,1.43,0.94,2.01,1.99,2.01c0.76,0,1.21-0.13,1.61-0.3l0.18,0.76c-0.37,0.17-1.01,0.36-1.93,0.36
		c-1.79,0-2.85-1.18-2.85-2.93s1.03-3.13,2.72-3.13c1.89,0,2.4,1.67,2.4,2.73c0,0.22-0.02,0.38-0.04,0.49H293.35z M296.45,76.76
		c0.01-0.67-0.28-1.71-1.46-1.71c-1.07,0-1.54,0.98-1.62,1.71H296.45z"/>
	<path d="M298.78,76.23c0-0.68-0.01-1.27-0.05-1.81h0.92l0.04,1.14h0.05c0.26-0.78,0.9-1.27,1.61-1.27c0.12,0,0.2,0.01,0.3,0.04v1
		c-0.11-0.02-0.22-0.04-0.36-0.04c-0.74,0-1.27,0.56-1.42,1.36c-0.02,0.14-0.05,0.31-0.05,0.49v3.09h-1.04V76.23z"/>
	<path d="M304.26,72.75v1.67h1.51v0.8h-1.51v3.13c0,0.72,0.2,1.13,0.79,1.13c0.28,0,0.48-0.04,0.61-0.07l0.05,0.79
		c-0.2,0.08-0.53,0.14-0.94,0.14c-0.49,0-0.89-0.16-1.14-0.44c-0.3-0.31-0.41-0.83-0.41-1.51v-3.17h-0.9v-0.8h0.9v-1.39
		L304.26,72.75z"/>
	<path d="M306.24,81.7c0.26-0.71,0.59-1.99,0.72-2.87l1.18-0.12c-0.28,1.02-0.8,2.35-1.14,2.91L306.24,81.7z"/>
	<path d="M313.29,77.68l-0.84,2.54h-1.08l2.75-8.08h1.26l2.76,8.08h-1.12l-0.86-2.54H313.29z M315.95,76.87l-0.79-2.33
		c-0.18-0.53-0.3-1.01-0.42-1.48h-0.02c-0.12,0.48-0.25,0.97-0.41,1.46l-0.79,2.34H315.95z"/>
	<path d="M319.26,71.71h1.05v8.52h-1.05V71.71z"/>
	<path d="M322.5,74.42l1.14,3.26c0.19,0.53,0.35,1.01,0.47,1.49h0.04c0.13-0.48,0.3-0.96,0.49-1.49l1.13-3.26h1.1l-2.28,5.8h-1.01
		l-2.21-5.8H322.5z"/>
	<path d="M331.03,80.23l-0.08-0.73h-0.04c-0.32,0.46-0.95,0.86-1.78,0.86c-1.17,0-1.77-0.83-1.77-1.67c0-1.4,1.25-2.17,3.49-2.16
		v-0.12c0-0.48-0.13-1.34-1.32-1.34c-0.54,0-1.1,0.17-1.51,0.43l-0.24-0.7c0.48-0.31,1.17-0.52,1.91-0.52
		c1.78,0,2.21,1.21,2.21,2.37v2.17c0,0.5,0.02,1,0.1,1.39H331.03z M330.87,77.26c-1.15-0.02-2.46,0.18-2.46,1.31
		c0,0.68,0.46,1.01,1,1.01c0.76,0,1.24-0.48,1.4-0.97c0.04-0.11,0.06-0.23,0.06-0.34V77.26z"/>
	<path d="M333.6,76.23c0-0.68-0.01-1.27-0.05-1.81h0.92l0.04,1.14h0.05c0.26-0.78,0.9-1.27,1.61-1.27c0.12,0,0.2,0.01,0.3,0.04v1
		c-0.11-0.02-0.22-0.04-0.36-0.04c-0.74,0-1.27,0.56-1.42,1.36c-0.02,0.14-0.05,0.31-0.05,0.49v3.09h-1.04V76.23z"/>
	<path d="M342.42,71.71v7.02c0,0.52,0.01,1.1,0.05,1.5h-0.95l-0.05-1.01h-0.02c-0.32,0.65-1.03,1.14-1.98,1.14
		c-1.4,0-2.48-1.19-2.48-2.95c-0.01-1.93,1.19-3.12,2.6-3.12c0.89,0,1.49,0.42,1.75,0.89h0.02v-3.47H342.42z M341.36,76.78
		c0-0.13-0.01-0.31-0.05-0.44c-0.16-0.67-0.73-1.22-1.52-1.22c-1.09,0-1.74,0.96-1.74,2.24c0,1.18,0.58,2.15,1.71,2.15
		c0.71,0,1.36-0.47,1.55-1.26c0.04-0.14,0.05-0.29,0.05-0.46V76.78z"/>
</g>
<line stroke="#000000" stroke-miterlimit="10" x1="261.78" y1="49.35" x2="286.35" y2="65.51"/>
<line stroke="#000000" stroke-miterlimit="10" x1="219" y1="18.26" x2="219" y2="33.67"/>
<g>
	<path d="M61.67,112.52l-0.84,2.54h-1.08l2.75-8.08h1.26l2.76,8.08H65.4l-0.86-2.54H61.67z M64.32,111.7l-0.79-2.33
		c-0.18-0.53-0.3-1.01-0.42-1.48h-0.02c-0.12,0.48-0.25,0.97-0.41,1.46l-0.79,2.34H64.32z"/>
	<path d="M67.64,106.55h1.05v8.52h-1.05V106.55z"/>
	<path d="M70.88,109.26l1.14,3.26c0.19,0.53,0.35,1.01,0.47,1.49h0.04c0.13-0.48,0.3-0.96,0.49-1.49l1.13-3.26h1.1l-2.28,5.8h-1.01
		l-2.21-5.8H70.88z"/>
	<path d="M77.42,107.63c0.01,0.36-0.25,0.65-0.67,0.65c-0.37,0-0.64-0.29-0.64-0.65c0-0.37,0.28-0.66,0.66-0.66
		C77.16,106.97,77.42,107.25,77.42,107.63z M76.24,115.06v-5.8h1.05v5.8H76.24z"/>
	<path d="M79.05,106.55h1.05v8.52h-1.05V106.55z"/>
	<path d="M86.89,106.55v7.02c0,0.52,0.01,1.1,0.05,1.5h-0.95l-0.05-1.01h-0.02c-0.32,0.65-1.03,1.14-1.98,1.14
		c-1.4,0-2.48-1.19-2.48-2.95c-0.01-1.93,1.19-3.12,2.6-3.12c0.89,0,1.49,0.42,1.75,0.89h0.02v-3.47H86.89z M85.84,111.62
		c0-0.13-0.01-0.31-0.05-0.44c-0.16-0.67-0.73-1.22-1.52-1.22c-1.09,0-1.74,0.96-1.74,2.24c0,1.18,0.58,2.15,1.71,2.15
		c0.71,0,1.36-0.47,1.55-1.26c0.04-0.14,0.05-0.29,0.05-0.46V111.62z"/>
	<path d="M89.24,112.35c0.02,1.43,0.94,2.01,1.99,2.01c0.76,0,1.21-0.13,1.61-0.3l0.18,0.76c-0.37,0.17-1.01,0.36-1.93,0.36
		c-1.79,0-2.85-1.18-2.85-2.93s1.03-3.13,2.72-3.13c1.89,0,2.4,1.67,2.4,2.73c0,0.22-0.02,0.38-0.04,0.49H89.24z M92.33,111.6
		c0.01-0.67-0.28-1.71-1.46-1.71c-1.07,0-1.54,0.98-1.62,1.71H92.33z"/>
	<path d="M93.83,116.54c0.26-0.71,0.59-1.99,0.72-2.87l1.18-0.12c-0.28,1.02-0.8,2.35-1.14,2.91L93.83,116.54z"/>
	<path d="M100.89,112.52l-0.84,2.54h-1.08l2.75-8.08h1.26l2.76,8.08h-1.12l-0.86-2.54H100.89z M103.54,111.7l-0.79-2.33
		c-0.18-0.53-0.3-1.01-0.42-1.48h-0.02c-0.12,0.48-0.25,0.97-0.41,1.46l-0.79,2.34H103.54z"/>
	<path d="M106.85,106.55h1.05v8.52h-1.05V106.55z"/>
	<path d="M110.09,109.26l1.14,3.26c0.19,0.53,0.35,1.01,0.47,1.49h0.04c0.13-0.48,0.3-0.96,0.49-1.49l1.13-3.26h1.1l-2.28,5.8h-1.01
		l-2.21-5.8H110.09z"/>
	<path d="M118.62,115.06l-0.08-0.73h-0.04c-0.32,0.46-0.95,0.86-1.78,0.86c-1.17,0-1.77-0.83-1.77-1.67c0-1.4,1.25-2.17,3.49-2.16
		v-0.12c0-0.48-0.13-1.34-1.32-1.34c-0.54,0-1.1,0.17-1.51,0.43l-0.24-0.7c0.48-0.31,1.17-0.52,1.91-0.52
		c1.78,0,2.21,1.21,2.21,2.37v2.17c0,0.5,0.02,1,0.1,1.39H118.62z M118.47,112.1c-1.15-0.02-2.46,0.18-2.46,1.31
		c0,0.68,0.46,1.01,1,1.01c0.76,0,1.24-0.48,1.4-0.97c0.04-0.11,0.06-0.23,0.06-0.34V112.1z"/>
	<path d="M120.51,116.54c0.26-0.71,0.59-1.99,0.72-2.87l1.18-0.12c-0.28,1.02-0.8,2.35-1.14,2.91L120.51,116.54z"/>
	<path d="M127.56,112.52l-0.84,2.54h-1.08l2.75-8.08h1.26l2.76,8.08h-1.12l-0.86-2.54H127.56z M130.21,111.7l-0.79-2.33
		c-0.18-0.53-0.3-1.01-0.42-1.48h-0.02c-0.12,0.48-0.25,0.97-0.41,1.46l-0.79,2.34H130.21z"/>
	<path d="M133.53,106.55h1.05v8.52h-1.05V106.55z"/>
	<path d="M136.47,115.06v-5h-0.82v-0.8h0.82v-0.28c0-0.82,0.18-1.56,0.67-2.03c0.4-0.38,0.92-0.54,1.42-0.54
		c0.37,0,0.7,0.08,0.9,0.17l-0.14,0.82c-0.16-0.07-0.37-0.13-0.67-0.13c-0.9,0-1.13,0.79-1.13,1.68v0.31h1.4v0.8h-1.4v5H136.47z"/>
	<path d="M144.96,112.11c0,2.15-1.49,3.08-2.89,3.08c-1.57,0-2.78-1.15-2.78-2.99c0-1.94,1.27-3.08,2.88-3.08
		C143.83,109.13,144.96,110.34,144.96,112.11z M140.36,112.17c0,1.27,0.73,2.23,1.76,2.23c1.01,0,1.76-0.95,1.76-2.25
		c0-0.98-0.49-2.23-1.74-2.23C140.89,109.92,140.36,111.07,140.36,112.17z"/>
	<path d="M146.3,110.83c0-0.6-0.01-1.09-0.05-1.57h0.94l0.06,0.96h0.02c0.29-0.55,0.96-1.09,1.92-1.09c0.8,0,2.05,0.48,2.05,2.47
		v3.47h-1.05v-3.35c0-0.94-0.35-1.71-1.34-1.71c-0.7,0-1.24,0.49-1.42,1.08c-0.05,0.13-0.07,0.31-0.07,0.49v3.49h-1.05V110.83z"/>
	<path d="M152.81,113.98c0.31,0.2,0.86,0.42,1.39,0.42c0.77,0,1.13-0.38,1.13-0.86c0-0.5-0.3-0.78-1.08-1.07
		c-1.04-0.37-1.54-0.95-1.54-1.64c0-0.94,0.76-1.7,2-1.7c0.59,0,1.1,0.17,1.43,0.36l-0.26,0.77c-0.23-0.14-0.65-0.34-1.19-0.34
		c-0.62,0-0.97,0.36-0.97,0.79c0,0.48,0.35,0.7,1.1,0.98c1.01,0.38,1.52,0.89,1.52,1.75c0,1.02-0.79,1.74-2.17,1.74
		c-0.64,0-1.22-0.16-1.63-0.4L152.81,113.98z"/>
	<path d="M158.29,112.35c0.02,1.43,0.94,2.01,1.99,2.01c0.76,0,1.21-0.13,1.61-0.3l0.18,0.76c-0.37,0.17-1.01,0.36-1.93,0.36
		c-1.79,0-2.85-1.18-2.85-2.93s1.03-3.13,2.72-3.13c1.89,0,2.4,1.67,2.4,2.73c0,0.22-0.02,0.38-0.04,0.49H158.29z M161.39,111.6
		c0.01-0.67-0.28-1.71-1.46-1.71c-1.07,0-1.54,0.98-1.62,1.71H161.39z"/>
</g>
<g>
	<path d="M61.97,146.14l-0.84,2.54h-1.08l2.75-8.08h1.26l2.76,8.08H65.7l-0.86-2.54H61.97z M64.62,145.33L63.83,143
		c-0.18-0.53-0.3-1.01-0.42-1.48h-0.02c-0.12,0.48-0.25,0.97-0.41,1.46l-0.79,2.34H64.62z"/>
	<path d="M67.94,140.17h1.06v8.52h-1.06V140.17z"/>
	<path d="M70.88,148.69v-5h-0.82v-0.8h0.82v-0.31c0-1.54,0.9-2.53,2.53-2.53c0.54,0,1.18,0.17,1.48,0.38l-0.3,0.8
		c-0.25-0.18-0.71-0.34-1.22-0.34c-1.12,0-1.44,0.78-1.44,1.7v0.29h3.37v5.8h-1.04v-5h-2.33v5H70.88z"/>
	<path d="M77.63,145.98c0.02,1.43,0.94,2.01,1.99,2.01c0.76,0,1.21-0.13,1.61-0.3l0.18,0.76c-0.37,0.17-1.01,0.36-1.93,0.36
		c-1.79,0-2.85-1.18-2.85-2.93c0-1.75,1.03-3.13,2.72-3.13c1.9,0,2.4,1.67,2.4,2.73c0,0.22-0.02,0.38-0.04,0.49H77.63z
		 M80.73,145.22c0.01-0.67-0.28-1.71-1.46-1.71c-1.07,0-1.54,0.98-1.62,1.71H80.73z"/>
	<path d="M82.23,150.16c0.26-0.71,0.59-1.99,0.72-2.87l1.18-0.12c-0.28,1.02-0.8,2.35-1.14,2.91L82.23,150.16z"/>
	<path d="M89.28,146.14l-0.84,2.54h-1.08l2.75-8.08h1.26l2.76,8.08h-1.12l-0.86-2.54H89.28z M91.93,145.33L91.14,143
		c-0.18-0.53-0.3-1.01-0.42-1.48H90.7c-0.12,0.48-0.25,0.97-0.41,1.46l-0.79,2.34H91.93z"/>
	<path d="M95.25,140.17h1.06v8.52h-1.06V140.17z"/>
	<path d="M98.49,142.88l1.14,3.26c0.19,0.53,0.35,1.01,0.47,1.49h0.04c0.13-0.48,0.3-0.96,0.49-1.49l1.13-3.26h1.1l-2.28,5.8h-1.01
		l-2.21-5.8H98.49z"/>
	<path d="M108.99,145.74c0,2.15-1.49,3.08-2.89,3.08c-1.57,0-2.78-1.15-2.78-2.99c0-1.94,1.27-3.08,2.88-3.08
		C107.86,142.75,108.99,143.96,108.99,145.74z M104.38,145.8c0,1.27,0.73,2.23,1.76,2.23c1.01,0,1.76-0.95,1.76-2.25
		c0-0.98-0.49-2.23-1.74-2.23C104.92,143.54,104.38,144.69,104.38,145.8z"/>
	<path d="M110.32,144.69c0-0.68-0.01-1.27-0.05-1.81h0.92l0.04,1.14h0.05c0.26-0.78,0.9-1.27,1.61-1.27c0.12,0,0.2,0.01,0.3,0.04v1
		c-0.11-0.02-0.22-0.04-0.36-0.04c-0.74,0-1.27,0.56-1.42,1.36c-0.02,0.14-0.05,0.31-0.05,0.49v3.09h-1.04V144.69z"/>
	<path d="M112.92,150.16c0.26-0.71,0.59-1.99,0.72-2.87l1.18-0.12c-0.28,1.02-0.8,2.35-1.14,2.91L112.92,150.16z"/>
	<path d="M120.33,140.6h1.04v5.41c0,2.15-1.06,2.81-2.45,2.81c-0.38,0-0.85-0.08-1.12-0.19l0.16-0.85c0.22,0.08,0.53,0.16,0.88,0.16
		c0.94,0,1.49-0.42,1.49-2V140.6z"/>
	<path d="M128.33,145.74c0,2.15-1.49,3.08-2.89,3.08c-1.57,0-2.78-1.15-2.78-2.99c0-1.94,1.27-3.08,2.88-3.08
		C127.2,142.75,128.33,143.96,128.33,145.74z M123.72,145.8c0,1.27,0.73,2.23,1.76,2.23c1.01,0,1.76-0.95,1.76-2.25
		c0-0.98-0.49-2.23-1.74-2.23C124.26,143.54,123.72,144.69,123.72,145.8z"/>
	<path d="M129.66,144.69c0-0.68-0.01-1.27-0.05-1.81h0.92l0.04,1.14h0.05c0.26-0.78,0.9-1.27,1.61-1.27c0.12,0,0.2,0.01,0.3,0.04v1
		c-0.11-0.02-0.22-0.04-0.36-0.04c-0.74,0-1.27,0.56-1.42,1.36c-0.02,0.14-0.05,0.31-0.05,0.49v3.09h-1.04V144.69z"/>
	<path d="M136.74,148.69l-0.08-0.73h-0.04c-0.32,0.46-0.95,0.86-1.77,0.86c-1.18,0-1.77-0.83-1.77-1.67c0-1.4,1.25-2.17,3.49-2.16
		v-0.12c0-0.48-0.13-1.34-1.32-1.34c-0.54,0-1.1,0.17-1.51,0.43l-0.24-0.7c0.48-0.31,1.18-0.52,1.91-0.52
		c1.77,0,2.21,1.21,2.21,2.37v2.17c0,0.5,0.02,1,0.1,1.39H136.74z M136.59,145.72c-1.15-0.02-2.46,0.18-2.46,1.31
		c0,0.68,0.46,1.01,1,1.01c0.76,0,1.24-0.48,1.4-0.97c0.04-0.11,0.06-0.23,0.06-0.34V145.72z"/>
	<path d="M139.31,140.17h1.06v8.52h-1.06V140.17z"/>
	<path d="M142.55,142.88l1.14,3.26c0.19,0.53,0.35,1.01,0.47,1.49h0.04c0.13-0.48,0.3-0.96,0.49-1.49l1.13-3.26h1.1l-2.28,5.8h-1.01
		l-2.21-5.8H142.55z"/>
</g>
<line stroke="#000000" stroke-miterlimit="10" x1="108.44" y1="116.54" x2="102.38" y2="141.01"/>
<line stroke="#000000" stroke-miterlimit="10" x1="177.36" y1="82.73" x2="126.22" y2="99.07"/>
<g>
	<path d="M15.62,8.63c0,2.65-0.98,4.11-2.71,4.11c-1.52,0-2.55-1.43-2.58-4.01c0-2.61,1.13-4.05,2.71-4.05
		C14.68,4.69,15.62,6.15,15.62,8.63z M11.38,8.75c0,2.03,0.62,3.18,1.58,3.18c1.08,0,1.6-1.26,1.6-3.25c0-1.92-0.49-3.18-1.58-3.18
		C12.05,5.5,11.38,6.63,11.38,8.75z"/>
</g>
<g>
	<path d="M12.73,40.23H12.7l-1.36,0.73l-0.2-0.8l1.7-0.91h0.9v7.8h-1.02V40.23z"/>
</g>
<g>
	<path d="M10.44,81.47v-0.65l0.83-0.8c1.99-1.9,2.89-2.9,2.9-4.08c0-0.79-0.38-1.52-1.55-1.52c-0.71,0-1.3,0.36-1.66,0.66
		l-0.34-0.74c0.54-0.46,1.31-0.79,2.21-0.79c1.68,0,2.39,1.15,2.39,2.27c0,1.44-1.04,2.6-2.69,4.19l-0.62,0.58v0.02h3.5v0.88H10.44z
		"/>
</g>
<g>
</g>
<g>
	<path d="M10.69,114.69c0.3,0.19,1,0.49,1.73,0.49c1.36,0,1.77-0.86,1.76-1.51c-0.01-1.09-1-1.56-2.02-1.56h-0.59v-0.79h0.59
		c0.77,0,1.74-0.4,1.74-1.32c0-0.62-0.4-1.18-1.37-1.18c-0.62,0-1.22,0.28-1.56,0.52l-0.28-0.77c0.41-0.3,1.2-0.6,2.04-0.6
		c1.54,0,2.23,0.91,2.23,1.86c0,0.8-0.48,1.49-1.44,1.83v0.02c0.96,0.19,1.74,0.91,1.74,2c0,1.25-0.97,2.34-2.84,2.34
		c-0.88,0-1.64-0.28-2.03-0.53L10.69,114.69z"/>
</g>
<g>
	<path d="M13.7,150.33v-2.12h-3.62v-0.7l3.48-4.98h1.14v4.85h1.09v0.83h-1.09v2.12H13.7z M13.7,147.38v-2.6
		c0-0.41,0.01-0.82,0.04-1.22H13.7c-0.24,0.46-0.43,0.79-0.65,1.15l-1.91,2.65v0.02H13.7z"/>
</g>
<g>
</g>
<g>
</g>
<g>
</g>
<g>
</g>
<g>
</g>
</svg>
